<svg width="34" height="27" viewBox="0 0 34 27" fill="none" xmlns="http://www.w3.org/2000/svg">
<path d="M6.09593 7.78044L8.00253 11.0027H8.07639L9.99223 7.78044H12.2497L9.36439 12.5077L12.3143 17.235H10.0153L8.07639 14.0081H8.00253L6.06361 17.235H3.77384L6.733 12.5077L3.82923 7.78044H6.09593ZM13.5146 17.235V7.78044H17.2447C17.9618 7.78044 18.5727 7.9174 19.0775 8.19131C19.5822 8.46214 19.9669 8.83915 20.2316 9.32234C20.4993 9.80246 20.6332 10.3564 20.6332 10.9843C20.6332 11.6121 20.4978 12.1661 20.227 12.6462C19.9561 13.1263 19.5637 13.5003 19.0498 13.768C18.5389 14.0358 17.9203 14.1696 17.1939 14.1696H14.8165V12.5677H16.8708C17.2555 12.5677 17.5725 12.5016 17.8218 12.3692C18.0741 12.2338 18.2619 12.0476 18.385 11.8106C18.5112 11.5706 18.5743 11.2951 18.5743 10.9843C18.5743 10.6704 18.5112 10.3964 18.385 10.1625C18.2619 9.92556 18.0741 9.74244 17.8218 9.61318C17.5694 9.48084 17.2493 9.41467 16.8616 9.41467H15.5135V17.235H13.5146Z" fill="#4A5915"/>
<rect x="0.5" y="1.16992" width="23" height="24.165" rx="4.5" stroke="#4A5915"/>
</svg>
